<svg width="256" height="256" viewBox="0 0 256 256" fill="none" xmlns="http://www.w3.org/2000/svg">
<g clip-path="url(#clip0_3_11)">
<path d="M47.3137 256C40.1865 256 36.6171 247.383 41.6569 242.343L242.343 41.6569C247.383 36.6172 256 40.1865 256 47.3137V248C256 252.418 252.418 256 248 256H47.3137Z" fill="white"/>
<path d="M208.686 5.36442e-06C215.814 5.36442e-06 219.383 8.61714 214.343 13.6569L13.6569 214.343C8.61716 219.383 5.36442e-06 215.814 5.36442e-06 208.686L5.36442e-06 8C5.36442e-06 3.58172 3.58173 5.36442e-06 8.00001 5.36442e-06L208.686 5.36442e-06Z" fill="white"/>
</g>
<defs>
<clipPath id="clip0_3_11">
<rect width="256" height="256" rx="32" fill="white"/>
</clipPath>
</defs>
</svg>
